<?xml version="1.0" encoding="UTF-8" standalone="no"?>
<svg
   xmlns:dc="http://purl.org/dc/elements/1.1/"
   xmlns:cc="http://creativecommons.org/ns#"
   xmlns:rdf="http://www.w3.org/1999/02/22-rdf-syntax-ns#"
   xmlns:svg="http://www.w3.org/2000/svg"
   xmlns="http://www.w3.org/2000/svg"
   xmlns:sodipodi="http://sodipodi.sourceforge.net/DTD/sodipodi-0.dtd"
   xmlns:inkscape="http://www.inkscape.org/namespaces/inkscape"
   id="Capa_1"
   data-name="Capa 1"
   viewBox="0 0 99.999998 99.999997"
   version="1.1"
   sodipodi:docname="favicon.svg"
   width="100"
   height="100"
   inkscape:version="1.0.2-2 (e86c870879, 2021-01-15)">
  <metadata
     id="metadata33">
    <rdf:RDF>
      <cc:Work
         rdf:about="">
        <dc:format>image/svg+xml</dc:format>
        <dc:type
           rdf:resource="http://purl.org/dc/dcmitype/StillImage" />
        <dc:title>Medexware_logo</dc:title>
      </cc:Work>
    </rdf:RDF>
  </metadata>
  <sodipodi:namedview
     pagecolor="#ffffff"
     bordercolor="#666666"
     borderopacity="1"
     objecttolerance="10"
     gridtolerance="10"
     guidetolerance="10"
     inkscape:pageopacity="0"
     inkscape:pageshadow="2"
     inkscape:window-width="1920"
     inkscape:window-height="1001"
     id="namedview31"
     showgrid="false"
     inkscape:zoom="1.8914638"
     inkscape:cx="201.97966"
     inkscape:cy="123.03772"
     inkscape:window-x="-9"
     inkscape:window-y="-9"
     inkscape:window-maximized="1"
     inkscape:current-layer="Capa_1"
     inkscape:document-rotation="0" />
  <defs
     id="defs4">
    <style
       id="style2">.cls-1{fill:#808f97;}.cls-2{fill:#45b9b6;}</style>
  </defs>
  <title
     id="title6">Medexware_logo</title>
  <path
     class="cls-1"
     d="m 24.705056,17.290227 a 5.351866,5.351866 0 0 1 9.102535,4.361242 5.3269445,5.3269445 0 0 0 1.538893,4.112027 v 0 0 l 3.738208,3.738206 v 0 0 0 a 5.3269445,5.3269445 0 0 0 3.981189,1.551355 v 0 h 0.193141 0.03741 0.224293 0.52335 0.211828 0.04982 0.193138 v 0 a 5.3269445,5.3269445 0 0 0 3.981192,-1.551355 v 0 0 0 l 3.738202,-3.738206 v 0 0 a 5.3269445,5.3269445 0 0 0 1.551355,-4.105797 5.370557,5.370557 0 0 1 0.09969,-1.750728 v -0.04362 q 0.05607,-0.255444 0.143301,-0.498428 v -0.08098 q 0.08098,-0.230523 0.180677,-0.448583 l 0.04358,-0.09346 q 0.105913,-0.224293 0.236745,-0.436125 l 0.04365,-0.07477 a 5.3207143,5.3207143 0 0 1 0.32398,-0.461044 v 0 a 5.3331749,5.3331749 0 0 1 8.386045,0 v 0 a 5.3269445,5.3269445 0 0 1 0.323979,0.461044 l 0.04357,0.07477 q 0.130837,0.211832 0.236756,0.429894 l 0.04357,0.09346 q 0.09969,0.21806 0.180677,0.448583 v 0.08723 q 0.08098,0.242983 0.137069,0.492197 v 0.05607 a 5.370557,5.370557 0 0 1 0.09969,1.744497 5.3269445,5.3269445 0 0 0 1.551355,4.105797 v 0 0 l 3.738203,3.738205 v 0 0 0 a 5.3269445,5.3269445 0 0 0 3.981191,1.551358 v 0 h 0.19314 0.04982 0.211827 0.52335 0.211837 0.04982 0.19314 v 0 a 5.3269445,5.3269445 0 0 0 3.981214,-1.551361 v 0 0 0 l 3.738203,-3.738206 v 0 0 a 5.3269445,5.3269445 0 0 0 1.551353,-4.124488 5.351866,5.351866 0 1 1 4.610463,4.735061 v 0 a 5.3269445,5.3269445 0 0 0 -3.981194,1.551357 v 0 0 0 l -3.7382,3.738205 v 0 0 a 5.3269445,5.3269445 0 0 0 -1.551357,4.12449 5.3580962,5.3580962 0 1 1 -10.653891,0 5.3269445,5.3269445 0 0 0 -1.551356,-4.12449 v 0 0 l -3.738204,-3.738201 v 0 0 0 A 5.3269445,5.3269445 0 0 0 59.682098,26.37407 v 0 0 h -0.280363 -0.06856 -0.211827 -0.280371 -0.211829 -0.06856 -0.280362 v 0 0 a 5.3269445,5.3269445 0 0 0 -3.981191,1.551356 v 0 0 0 l -3.738212,3.738206 v 0 0 a 5.3269445,5.3269445 0 0 0 -1.551356,4.12449 5.3580962,5.3580962 0 1 1 -10.653885,0 5.3269445,5.3269445 0 0 0 -1.551356,-4.12449 v 0 0 l -3.738209,-3.738206 v 0 0 0 A 5.3269445,5.3269445 0 0 0 29.084816,26.37407 v 0 a 5.3456356,5.3456356 0 0 1 -4.491891,-9.083842 z"
     id="path8"
     style="stroke-width:0.623035" />
  <path
     class="cls-2"
     d="m 9.2600319,19.614145 a 5.3394052,5.3394052 0 0 1 4.4920801,-1.513973 v 0 a 5.3269445,5.3269445 0 0 0 3.98119,-1.557586 v 0 0 0 l 3.738206,-3.738207 v 0 0 a 5.3269445,5.3269445 0 0 0 1.551355,-4.124488 5.3580962,5.3580962 0 1 1 10.65389,0 5.3207143,5.3207143 0 0 0 1.551356,4.124488 v 0 0 l 3.738206,3.738207 v 0 0 0 a 5.3269445,5.3269445 0 0 0 3.981191,1.557586 v 0 0 h 0.255445 0.242978 0.205606 0.286594 0.205604 0.08098 0.261676 v 0 0 a 5.3269445,5.3269445 0 0 0 3.98119,-1.557586 v 0 0 0 l 3.738213,-3.738207 v 0 0 a 5.3269445,5.3269445 0 0 0 1.551353,-4.124488 5.3580962,5.3580962 0 1 1 10.653884,0 5.3269445,5.3269445 0 0 0 1.551358,4.124488 v 0 0 l 3.73821,3.738207 v 0 0 0 a 5.3269445,5.3269445 0 0 0 3.98119,1.557586 v 0 a 5.3456356,5.3456356 0 1 1 -4.610458,4.735062 5.3207143,5.3207143 0 0 0 -1.551357,-4.124489 v 0 0 l -3.738209,-3.738207 v 0 0 0 a 5.3269445,5.3269445 0 0 0 -3.981187,-1.557585 v 0 h -0.186908 -0.05607 -0.205595 -0.529583 -0.205604 -0.05607 -0.186908 v 0 a 5.3269445,5.3269445 0 0 0 -3.981191,1.557585 v 0 0 0 l -3.738203,3.738207 v 0 0 a 5.3207143,5.3207143 0 0 0 -1.551365,4.105797 5.370557,5.370557 0 0 1 -0.09967,1.744498 v 0.04362 q -0.05607,0.249214 -0.143303,0.498427 v 0.081 q -0.08098,0.230524 -0.180677,0.448586 l -0.04357,0.09345 q -0.105913,0.224294 -0.236757,0.436125 l -0.04357,0.07476 a 5.3331749,5.3331749 0 0 1 -0.330211,0.473506 v 0 a 5.3020232,5.3020232 0 0 1 -4.193027,2.031091 5.3020232,5.3020232 0 0 1 -4.193018,-2.02486 v 0 a 5.3269445,5.3269445 0 0 1 -0.317755,-0.44858 l -0.04986,-0.08722 c -0.08099,-0.13707 -0.161985,-0.274135 -0.230519,-0.417435 l -0.04984,-0.105913 q -0.09969,-0.211829 -0.174454,-0.436122 l -0.03116,-0.09969 q -0.08098,-0.236747 -0.137057,-0.479728 v -0.0623 a 5.370557,5.370557 0 0 1 -0.09352,-1.738278 5.3269445,5.3269445 0 0 0 -1.551358,-4.105797 v 0 0 l -3.738205,-3.738206 v 0 0 0 A 5.3269445,5.3269445 0 0 0 29.284356,13.43989 v 0 h -0.18691 -0.05607 -0.205602 -0.52958 -0.205601 -0.230522 -0.186911 v 0 a 5.3269445,5.3269445 0 0 0 -3.98119,1.557586 v 0 0 0 l -3.738205,3.738206 v 0 0 a 5.3269445,5.3269445 0 0 0 -1.551372,4.124475 5.351866,5.351866 0 1 1 -9.1025316,-3.214859 z"
     id="path10"
     style="stroke-width:0.623035" />
  <path
     class="cls-2"
     d="m 5.433552,49.069075 a 3.226575,3.226575 0 0 1 6.453149,0 v 0.253064 c 1.482957,-1.908107 3.436616,-3.649191 6.706209,-3.649191 2.97098,0 5.218192,1.315936 6.407595,3.608701 1.994152,-2.333255 4.372953,-3.608701 7.470464,-3.608701 4.798109,0 7.683044,2.884936 7.683044,8.361253 v 11.843421 a 3.226575,3.226575 0 0 1 -6.453147,0 v -9.717679 c 0,-3.036775 -1.356427,-4.626019 -3.775721,-4.626019 -2.419301,0 -3.902258,1.569 -3.902258,4.626019 v 9.717679 a 3.226575,3.226575 0 1 1 -6.453148,0 v -9.717679 c 0,-3.036775 -1.35642,-4.626019 -3.775721,-4.626019 -2.419293,0 -3.902258,1.569 -3.902258,4.626019 v 9.717679 a 3.2265732,3.2265732 0 0 1 -6.453141,0 z"
     id="path12"
     style="stroke-width:0.506129" />
  <path
     class="cls-2"
     d="m 67.226213,67.551539 a 3.2265732,3.2265732 0 0 1 -6.453141,0 v -0.298616 c -1.569001,2.120681 -3.735235,3.689681 -7.085806,3.689681 -5.304237,0 -10.355399,-4.160381 -10.355399,-11.757379 v -0.08604 c 0,-7.591937 4.965124,-11.757379 10.355399,-11.757379 a 8.7357889,8.7357889 0 0 1 7.085806,3.396126 V 42.50827 a 3.2265732,3.2265732 0 0 1 6.453141,0 z M 49.785008,59.104245 v 0.08604 c 0,3.775722 2.530644,6.281063 5.567416,6.281063 3.03678,0 5.516812,-2.505341 5.516812,-6.281063 v -0.08604 c 0,-3.775724 -2.505338,-6.281063 -5.516812,-6.281063 -3.011466,0 -5.567416,2.459787 -5.567416,6.281063 z"
     id="path16"
     style="stroke-width:0.506129" />
  <path
     class="cls-2"
     d="M 71.7832,65.292973 77.598624,58.41974 72.289335,52.3057 a 3.7149877,3.7149877 0 0 1 -1.062874,-2.459788 2.8748134,2.8748134 0 0 1 2.970974,-2.970978 c 1.275448,0 2.16624,0.592172 3.036778,1.655043 l 4.200871,5.602849 4.286914,-5.602849 c 0.764255,-0.931277 1.655047,-1.655043 2.798891,-1.655043 a 2.8495069,2.8495069 0 0 1 3.036781,2.798895 3.4315555,3.4315555 0 0 1 -0.890787,2.206722 l -5.562363,6.443025 5.688894,6.534126 a 3.7149877,3.7149877 0 0 1 1.062866,2.459788 2.8748134,2.8748134 0 0 1 -2.970975,2.970977 c -1.275447,0 -2.166231,-0.59217 -3.036777,-1.655042 l -4.585527,-6.027998 -4.585527,6.027998 c -0.764255,0.936339 -1.655047,1.655042 -2.798898,1.655042 A 2.8495069,2.8495069 0 0 1 70.841804,67.489574 3.2240425,3.2240425 0 0 1 71.7832,65.292973 Z"
     id="path20"
     style="stroke-width:0.506129" />
  <path
     class="cls-1"
     d="M 10.73884,95.594367 4.073117,77.049798 a 3.0367747,3.0367747 0 0 1 -0.2125674,-0.890785 1.6145519,1.6145519 0 0 1 1.655039,-1.569001 1.7157778,1.7157778 0 0 1 1.6550391,1.356427 L 12.677312,92.41082 18.244728,75.900887 a 1.6752874,1.6752874 0 0 1 1.614561,-1.315935 h 0.172076 a 1.7309616,1.7309616 0 0 1 1.695538,1.315935 l 5.516805,16.509933 5.602856,-16.550426 a 1.6044293,1.6044293 0 0 1 1.568994,-1.275442 1.5690002,1.5690002 0 0 1 1.614547,1.51839 3.0367747,3.0367747 0 0 1 -0.212575,0.890784 l -6.706201,18.590126 c -0.339105,0.976832 -1.012262,1.482955 -1.781584,1.482955 h -0.12653 c -0.850292,0 -1.482957,-0.506123 -1.781569,-1.482955 L 19.945327,79.585509 14.428515,95.584252 c -0.298612,0.976832 -0.936337,1.482955 -1.781569,1.482955 h -0.08604 a 1.9435358,1.9435358 0 0 1 -1.822062,-1.47284 z"
     id="path22"
     style="stroke-width:0.506129" />
  <path
     class="cls-1"
     d="m 37.748055,90.376174 v -0.08608 c 0,-4.626018 3.821272,-7.085812 9.378576,-7.085812 a 23.281939,23.281939 0 0 1 6.746694,0.936344 v -0.764207 c 0,-3.94781 -2.419294,-5.982447 -6.534119,-5.982447 a 13.695854,13.695854 0 0 0 -5.709141,1.22483 1.6651648,1.6651648 0 0 1 -0.592164,0.12653 1.4525905,1.4525905 0 0 1 -1.442472,-1.401972 1.5183873,1.5183873 0 0 1 0.890785,-1.356427 17.299494,17.299494 0 0 1 7.171851,-1.482957 c 3.09751,0 5.476311,0.80474 7.085806,2.419294 1.482964,1.488017 2.247218,3.608698 2.247218,6.407596 v 12.010441 a 1.548755,1.548755 0 0 1 -1.569009,1.614548 1.5183873,1.5183873 0 0 1 -1.568994,-1.51838 v -1.994149 a 9.6164535,9.6164535 0 0 1 -7.936106,3.775715 c -4.054093,-0.01011 -8.168925,-2.343371 -8.168925,-6.842865 z m 16.170822,-1.69553 v -2.120679 a 22.882097,22.882097 0 0 0 -6.45314,-0.951524 c -4.114826,0 -6.407597,1.781576 -6.407597,4.555158 v 0.08608 c 0,2.758406 2.530651,4.372954 5.516811,4.372954 4.028789,-0.0056 7.343926,-2.46484 7.343926,-5.947015 z"
     id="path24"
     style="stroke-width:0.506129" />
  <path
     class="cls-1"
     d="m 62.251931,76.239991 a 1.6499809,1.6499809 0 0 1 1.614553,-1.655039 1.6297357,1.6297357 0 0 1 1.655047,1.655039 v 4.114833 c 1.614546,-3.649191 4.798102,-5.855916 7.5565,-5.855916 a 1.5690002,1.5690002 0 0 1 1.614561,1.655046 1.6196132,1.6196132 0 0 1 -1.442471,1.655039 c -4.246422,0.506127 -7.72353,3.694743 -7.72353,10.016298 v 7.470466 a 1.6347985,1.6347985 0 1 1 -3.269594,0 z"
     id="path26"
     style="stroke-width:0.506129" />
  <path
     class="cls-1"
     d="m 86.376217,97.24942 c -6.027999,0 -10.947571,-4.626025 -10.947571,-11.418277 v -0.08604 c 0,-6.321553 4.453929,-11.418274 10.527481,-11.418274 6.493641,0 10.183323,5.304237 10.183323,11.13484 a 1.5183873,1.5183873 0 0 1 -1.518392,1.51839 H 78.733672 c 0.465634,4.752553 3.821265,7.424914 7.723523,7.424914 a 8.9686078,8.9686078 0 0 0 6.321554,-2.530645 1.4121002,1.4121002 0 0 1 2.378808,1.012257 1.407039,1.407039 0 0 1 -0.506124,1.062866 11.13484,11.13484 0 0 1 -8.275216,3.299973 z m 6.493629,-12.688666 c -0.339101,-3.988296 -2.631864,-7.470463 -7.004824,-7.470463 -3.821272,0 -6.706201,3.183555 -7.13135,7.470463 z"
     id="path28"
     style="stroke-width:0.506129" />
</svg>
